<mxfile host="Electron" modified="2024-06-26T09:57:51.950Z" agent="Mozilla/5.0 (Windows NT 10.0; Win64; x64) AppleWebKit/537.36 (KHTML, like Gecko) draw.io/24.2.5 Chrome/120.0.6099.109 Electron/28.1.0 Safari/537.36" etag="0AN8xSqDzZjhhHp6NO4-" version="24.2.5" type="device">
  <diagram name="Página-1" id="PXSTgWIqo2IdQItfZzyf">
    <mxGraphModel dx="-144" dy="398" grid="1" gridSize="1" guides="1" tooltips="1" connect="1" arrows="1" fold="1" page="1" pageScale="1" pageWidth="827" pageHeight="1169" math="0" shadow="0">
      <root>
        <mxCell id="0" />
        <mxCell id="1" parent="0" />
        <mxCell id="TujqaWs24Fju-IIvjXYW-40" value="" style="verticalLabelPosition=bottom;shadow=0;dashed=0;align=center;html=1;verticalAlign=top;shape=mxgraph.electrical.logic_gates.logic_gate;operation=xor;rotation=90;" parent="1" vertex="1">
          <mxGeometry x="1360" y="637" width="40" height="30" as="geometry" />
        </mxCell>
        <mxCell id="TujqaWs24Fju-IIvjXYW-41" value="" style="rounded=0;whiteSpace=wrap;html=1;" parent="1" vertex="1">
          <mxGeometry x="1409" y="660" width="61" height="50" as="geometry" />
        </mxCell>
        <mxCell id="TujqaWs24Fju-IIvjXYW-42" value="" style="endArrow=classic;html=1;rounded=0;entryX=0;entryY=0.239;entryDx=0;entryDy=0;exitX=1;exitY=0.5;exitDx=0;exitDy=0;exitPerimeter=0;entryPerimeter=0;" parent="1" source="TujqaWs24Fju-IIvjXYW-40" target="TujqaWs24Fju-IIvjXYW-41" edge="1">
          <mxGeometry width="50" height="50" relative="1" as="geometry">
            <mxPoint x="1310" y="670" as="sourcePoint" />
            <mxPoint x="1360" y="620" as="targetPoint" />
          </mxGeometry>
        </mxCell>
        <mxCell id="TujqaWs24Fju-IIvjXYW-44" value="&lt;font style=&quot;font-size: 14px;&quot;&gt;A&lt;/font&gt;" style="text;html=1;align=center;verticalAlign=middle;whiteSpace=wrap;rounded=0;" parent="1" vertex="1">
          <mxGeometry x="1409" y="663" width="18" height="16" as="geometry" />
        </mxCell>
        <mxCell id="TujqaWs24Fju-IIvjXYW-45" value="&lt;font style=&quot;font-size: 14px;&quot;&gt;Ci&lt;/font&gt;" style="text;html=1;align=center;verticalAlign=middle;whiteSpace=wrap;rounded=0;" parent="1" vertex="1">
          <mxGeometry x="1411" y="691.63" width="14" height="16.75" as="geometry" />
        </mxCell>
        <mxCell id="TujqaWs24Fju-IIvjXYW-46" value="&lt;font style=&quot;font-size: 14px;&quot;&gt;Co&lt;/font&gt;" style="text;html=1;align=center;verticalAlign=middle;whiteSpace=wrap;rounded=0;" parent="1" vertex="1">
          <mxGeometry x="1447" y="690.88" width="23" height="18.25" as="geometry" />
        </mxCell>
        <mxCell id="TujqaWs24Fju-IIvjXYW-47" value="&lt;font style=&quot;font-size: 14px;&quot;&gt;Z&lt;/font&gt;" style="text;html=1;align=center;verticalAlign=middle;whiteSpace=wrap;rounded=0;" parent="1" vertex="1">
          <mxGeometry x="1453" y="663" width="17" height="16" as="geometry" />
        </mxCell>
        <mxCell id="TujqaWs24Fju-IIvjXYW-48" value="&lt;font style=&quot;font-size: 14px;&quot;&gt;≠&lt;/font&gt;" style="rounded=0;whiteSpace=wrap;html=1;" parent="1" vertex="1">
          <mxGeometry x="1301" y="695" width="20" height="20" as="geometry" />
        </mxCell>
        <mxCell id="TujqaWs24Fju-IIvjXYW-49" value="" style="shape=or;whiteSpace=wrap;html=1;" parent="1" vertex="1">
          <mxGeometry x="1370" y="685" width="20" height="30" as="geometry" />
        </mxCell>
        <mxCell id="TujqaWs24Fju-IIvjXYW-50" value="" style="endArrow=classic;html=1;rounded=0;" parent="1" edge="1">
          <mxGeometry width="50" height="50" relative="1" as="geometry">
            <mxPoint x="1390" y="700" as="sourcePoint" />
            <mxPoint x="1409" y="700" as="targetPoint" />
          </mxGeometry>
        </mxCell>
        <mxCell id="TujqaWs24Fju-IIvjXYW-51" value="" style="endArrow=classic;html=1;rounded=0;" parent="1" edge="1">
          <mxGeometry width="50" height="50" relative="1" as="geometry">
            <mxPoint x="1260" y="705" as="sourcePoint" />
            <mxPoint x="1301" y="705" as="targetPoint" />
          </mxGeometry>
        </mxCell>
        <mxCell id="TujqaWs24Fju-IIvjXYW-52" value="" style="endArrow=classic;html=1;rounded=0;entryX=0.5;entryY=0;entryDx=0;entryDy=0;" parent="1" target="TujqaWs24Fju-IIvjXYW-48" edge="1">
          <mxGeometry width="50" height="50" relative="1" as="geometry">
            <mxPoint x="1311" y="678" as="sourcePoint" />
            <mxPoint x="1320" y="670.88" as="targetPoint" />
          </mxGeometry>
        </mxCell>
        <mxCell id="TujqaWs24Fju-IIvjXYW-53" value="" style="endArrow=classic;html=1;rounded=0;exitX=1;exitY=0.5;exitDx=0;exitDy=0;entryX=0.014;entryY=0.669;entryDx=0;entryDy=0;entryPerimeter=0;" parent="1" source="TujqaWs24Fju-IIvjXYW-48" target="TujqaWs24Fju-IIvjXYW-49" edge="1">
          <mxGeometry width="50" height="50" relative="1" as="geometry">
            <mxPoint x="1355" y="670" as="sourcePoint" />
            <mxPoint x="1405" y="620" as="targetPoint" />
          </mxGeometry>
        </mxCell>
        <mxCell id="TujqaWs24Fju-IIvjXYW-54" value="&lt;font style=&quot;font-size: 14px;&quot;&gt;-256&lt;/font&gt;" style="rounded=0;whiteSpace=wrap;html=1;" parent="1" vertex="1">
          <mxGeometry x="1293" y="655" width="36" height="25" as="geometry" />
        </mxCell>
        <mxCell id="TujqaWs24Fju-IIvjXYW-55" value="" style="endArrow=none;html=1;rounded=0;" parent="1" edge="1">
          <mxGeometry width="50" height="50" relative="1" as="geometry">
            <mxPoint x="1268" y="710" as="sourcePoint" />
            <mxPoint x="1278" y="700" as="targetPoint" />
          </mxGeometry>
        </mxCell>
        <mxCell id="TujqaWs24Fju-IIvjXYW-56" value="9" style="text;html=1;align=center;verticalAlign=middle;whiteSpace=wrap;rounded=0;" parent="1" vertex="1">
          <mxGeometry x="1266" y="692" width="9" height="12" as="geometry" />
        </mxCell>
        <mxCell id="TujqaWs24Fju-IIvjXYW-57" value="" style="endArrow=classic;html=1;rounded=0;entryX=0;entryY=0.25;entryDx=0;entryDy=0;entryPerimeter=0;" parent="1" target="TujqaWs24Fju-IIvjXYW-49" edge="1">
          <mxGeometry width="50" height="50" relative="1" as="geometry">
            <mxPoint x="1350" y="610" as="sourcePoint" />
            <mxPoint x="1440" y="630" as="targetPoint" />
            <Array as="points">
              <mxPoint x="1350" y="692" />
            </Array>
          </mxGeometry>
        </mxCell>
        <mxCell id="TujqaWs24Fju-IIvjXYW-58" value="&lt;font style=&quot;font-size: 14px;&quot;&gt;A&lt;/font&gt;" style="text;html=1;align=center;verticalAlign=middle;whiteSpace=wrap;rounded=0;" parent="1" vertex="1">
          <mxGeometry x="1246" y="699" width="10" height="10" as="geometry" />
        </mxCell>
        <mxCell id="TujqaWs24Fju-IIvjXYW-61" value="" style="rounded=0;whiteSpace=wrap;html=1;" parent="1" vertex="1">
          <mxGeometry x="1530" y="660" width="61" height="50" as="geometry" />
        </mxCell>
        <mxCell id="TujqaWs24Fju-IIvjXYW-66" value="" style="endArrow=classic;html=1;rounded=0;entryX=0;entryY=0.75;entryDx=0;entryDy=0;exitX=1;exitY=0.75;exitDx=0;exitDy=0;" parent="1" edge="1">
          <mxGeometry width="50" height="50" relative="1" as="geometry">
            <mxPoint x="1470" y="700.5" as="sourcePoint" />
            <mxPoint x="1530" y="700.5" as="targetPoint" />
          </mxGeometry>
        </mxCell>
        <mxCell id="TujqaWs24Fju-IIvjXYW-67" value="" style="verticalLabelPosition=bottom;shadow=0;dashed=0;align=center;html=1;verticalAlign=top;shape=mxgraph.electrical.logic_gates.logic_gate;operation=xor;rotation=90;" parent="1" vertex="1">
          <mxGeometry x="1481" y="637" width="40" height="30" as="geometry" />
        </mxCell>
        <mxCell id="TujqaWs24Fju-IIvjXYW-68" value="" style="endArrow=classic;html=1;rounded=0;entryX=-0.001;entryY=0.24;entryDx=0;entryDy=0;exitX=1;exitY=0.5;exitDx=0;exitDy=0;exitPerimeter=0;entryPerimeter=0;" parent="1" source="TujqaWs24Fju-IIvjXYW-67" target="TujqaWs24Fju-IIvjXYW-61" edge="1">
          <mxGeometry width="50" height="50" relative="1" as="geometry">
            <mxPoint x="1431" y="670" as="sourcePoint" />
            <mxPoint x="1530" y="673" as="targetPoint" />
          </mxGeometry>
        </mxCell>
        <mxCell id="TujqaWs24Fju-IIvjXYW-69" value="" style="endArrow=classic;html=1;rounded=0;exitX=0.993;exitY=0.203;exitDx=0;exitDy=0;exitPerimeter=0;" parent="1" source="TujqaWs24Fju-IIvjXYW-41" edge="1">
          <mxGeometry width="50" height="50" relative="1" as="geometry">
            <mxPoint x="1488" y="667" as="sourcePoint" />
            <mxPoint x="1488" y="730" as="targetPoint" />
            <Array as="points">
              <mxPoint x="1488" y="670" />
            </Array>
          </mxGeometry>
        </mxCell>
        <mxCell id="TujqaWs24Fju-IIvjXYW-70" value="&lt;font style=&quot;font-size: 15px;&quot;&gt;. . .&lt;/font&gt;" style="text;html=1;align=center;verticalAlign=middle;whiteSpace=wrap;rounded=0;" parent="1" vertex="1">
          <mxGeometry x="1624" y="676" width="30" height="20" as="geometry" />
        </mxCell>
        <mxCell id="TujqaWs24Fju-IIvjXYW-71" value="" style="endArrow=classic;html=1;rounded=0;exitX=0.993;exitY=0.203;exitDx=0;exitDy=0;exitPerimeter=0;" parent="1" edge="1">
          <mxGeometry width="50" height="50" relative="1" as="geometry">
            <mxPoint x="1591" y="672" as="sourcePoint" />
            <mxPoint x="1609" y="732" as="targetPoint" />
            <Array as="points">
              <mxPoint x="1609" y="672" />
            </Array>
          </mxGeometry>
        </mxCell>
        <mxCell id="TujqaWs24Fju-IIvjXYW-72" value="" style="rounded=0;whiteSpace=wrap;html=1;" parent="1" vertex="1">
          <mxGeometry x="1689" y="660" width="61" height="50" as="geometry" />
        </mxCell>
        <mxCell id="TujqaWs24Fju-IIvjXYW-77" value="" style="verticalLabelPosition=bottom;shadow=0;dashed=0;align=center;html=1;verticalAlign=top;shape=mxgraph.electrical.logic_gates.logic_gate;operation=xor;rotation=90;" parent="1" vertex="1">
          <mxGeometry x="1640" y="637" width="40" height="30" as="geometry" />
        </mxCell>
        <mxCell id="TujqaWs24Fju-IIvjXYW-78" value="" style="endArrow=classic;html=1;rounded=0;entryX=-0.001;entryY=0.24;entryDx=0;entryDy=0;exitX=1;exitY=0.5;exitDx=0;exitDy=0;exitPerimeter=0;entryPerimeter=0;" parent="1" source="TujqaWs24Fju-IIvjXYW-77" target="TujqaWs24Fju-IIvjXYW-72" edge="1">
          <mxGeometry width="50" height="50" relative="1" as="geometry">
            <mxPoint x="1590" y="670" as="sourcePoint" />
            <mxPoint x="1689" y="673" as="targetPoint" />
          </mxGeometry>
        </mxCell>
        <mxCell id="TujqaWs24Fju-IIvjXYW-79" value="" style="endArrow=classic;html=1;rounded=0;" parent="1" edge="1">
          <mxGeometry width="50" height="50" relative="1" as="geometry">
            <mxPoint x="1661" y="699.8" as="sourcePoint" />
            <mxPoint x="1689" y="699.8" as="targetPoint" />
          </mxGeometry>
        </mxCell>
        <mxCell id="TujqaWs24Fju-IIvjXYW-80" value="" style="endArrow=classic;html=1;rounded=0;exitX=0.993;exitY=0.203;exitDx=0;exitDy=0;exitPerimeter=0;" parent="1" edge="1">
          <mxGeometry width="50" height="50" relative="1" as="geometry">
            <mxPoint x="1750" y="672" as="sourcePoint" />
            <mxPoint x="1768" y="732" as="targetPoint" />
            <Array as="points">
              <mxPoint x="1768" y="672" />
            </Array>
          </mxGeometry>
        </mxCell>
        <mxCell id="TujqaWs24Fju-IIvjXYW-81" value="" style="endArrow=classic;html=1;rounded=0;" parent="1" edge="1">
          <mxGeometry width="50" height="50" relative="1" as="geometry">
            <mxPoint x="1750" y="699.83" as="sourcePoint" />
            <mxPoint x="1810" y="732" as="targetPoint" />
            <Array as="points">
              <mxPoint x="1810" y="700" />
            </Array>
          </mxGeometry>
        </mxCell>
        <mxCell id="TujqaWs24Fju-IIvjXYW-82" value="&lt;font style=&quot;font-size: 14px;&quot;&gt;A&lt;/font&gt;" style="text;html=1;align=center;verticalAlign=middle;whiteSpace=wrap;rounded=0;" parent="1" vertex="1">
          <mxGeometry x="1689" y="662.87" width="18" height="16" as="geometry" />
        </mxCell>
        <mxCell id="TujqaWs24Fju-IIvjXYW-83" value="&lt;font style=&quot;font-size: 14px;&quot;&gt;Ci&lt;/font&gt;" style="text;html=1;align=center;verticalAlign=middle;whiteSpace=wrap;rounded=0;" parent="1" vertex="1">
          <mxGeometry x="1691" y="691.5" width="14" height="16.75" as="geometry" />
        </mxCell>
        <mxCell id="TujqaWs24Fju-IIvjXYW-84" value="&lt;font style=&quot;font-size: 14px;&quot;&gt;Co&lt;/font&gt;" style="text;html=1;align=center;verticalAlign=middle;whiteSpace=wrap;rounded=0;" parent="1" vertex="1">
          <mxGeometry x="1727" y="690.75" width="23" height="18.25" as="geometry" />
        </mxCell>
        <mxCell id="TujqaWs24Fju-IIvjXYW-85" value="&lt;font style=&quot;font-size: 14px;&quot;&gt;Z&lt;/font&gt;" style="text;html=1;align=center;verticalAlign=middle;whiteSpace=wrap;rounded=0;" parent="1" vertex="1">
          <mxGeometry x="1733" y="662.87" width="17" height="16" as="geometry" />
        </mxCell>
        <mxCell id="TujqaWs24Fju-IIvjXYW-86" value="&lt;font style=&quot;font-size: 14px;&quot;&gt;A&lt;/font&gt;" style="text;html=1;align=center;verticalAlign=middle;whiteSpace=wrap;rounded=0;" parent="1" vertex="1">
          <mxGeometry x="1530" y="662.94" width="18" height="16" as="geometry" />
        </mxCell>
        <mxCell id="TujqaWs24Fju-IIvjXYW-87" value="&lt;font style=&quot;font-size: 14px;&quot;&gt;Ci&lt;/font&gt;" style="text;html=1;align=center;verticalAlign=middle;whiteSpace=wrap;rounded=0;" parent="1" vertex="1">
          <mxGeometry x="1532" y="691.57" width="14" height="16.75" as="geometry" />
        </mxCell>
        <mxCell id="TujqaWs24Fju-IIvjXYW-88" value="&lt;font style=&quot;font-size: 14px;&quot;&gt;Co&lt;/font&gt;" style="text;html=1;align=center;verticalAlign=middle;whiteSpace=wrap;rounded=0;" parent="1" vertex="1">
          <mxGeometry x="1568" y="690.82" width="23" height="18.25" as="geometry" />
        </mxCell>
        <mxCell id="TujqaWs24Fju-IIvjXYW-89" value="&lt;font style=&quot;font-size: 14px;&quot;&gt;Z&lt;/font&gt;" style="text;html=1;align=center;verticalAlign=middle;whiteSpace=wrap;rounded=0;" parent="1" vertex="1">
          <mxGeometry x="1574" y="662.94" width="17" height="16" as="geometry" />
        </mxCell>
        <mxCell id="TujqaWs24Fju-IIvjXYW-90" value="" style="endArrow=none;html=1;rounded=0;" parent="1" edge="1">
          <mxGeometry width="50" height="50" relative="1" as="geometry">
            <mxPoint x="1350" y="610" as="sourcePoint" />
            <mxPoint x="1610" y="610" as="targetPoint" />
          </mxGeometry>
        </mxCell>
        <mxCell id="TujqaWs24Fju-IIvjXYW-91" value="" style="endArrow=none;dashed=1;html=1;rounded=0;" parent="1" edge="1">
          <mxGeometry width="50" height="50" relative="1" as="geometry">
            <mxPoint x="1604" y="610" as="sourcePoint" />
            <mxPoint x="1640" y="610" as="targetPoint" />
          </mxGeometry>
        </mxCell>
        <mxCell id="TujqaWs24Fju-IIvjXYW-92" value="" style="endArrow=none;html=1;rounded=0;exitX=0;exitY=0.75;exitDx=0;exitDy=0;exitPerimeter=0;" parent="1" source="TujqaWs24Fju-IIvjXYW-77" edge="1">
          <mxGeometry width="50" height="50" relative="1" as="geometry">
            <mxPoint x="1560" y="660" as="sourcePoint" />
            <mxPoint x="1640" y="610" as="targetPoint" />
            <Array as="points">
              <mxPoint x="1652" y="610" />
            </Array>
          </mxGeometry>
        </mxCell>
        <mxCell id="TujqaWs24Fju-IIvjXYW-94" value="" style="endArrow=none;html=1;rounded=0;exitX=0;exitY=0.75;exitDx=0;exitDy=0;exitPerimeter=0;" parent="1" source="TujqaWs24Fju-IIvjXYW-67" edge="1">
          <mxGeometry width="50" height="50" relative="1" as="geometry">
            <mxPoint x="1510" y="680" as="sourcePoint" />
            <mxPoint x="1493" y="610" as="targetPoint" />
          </mxGeometry>
        </mxCell>
        <mxCell id="TujqaWs24Fju-IIvjXYW-95" value="" style="endArrow=none;html=1;rounded=0;exitX=0;exitY=0.75;exitDx=0;exitDy=0;exitPerimeter=0;" parent="1" edge="1">
          <mxGeometry width="50" height="50" relative="1" as="geometry">
            <mxPoint x="1373" y="632" as="sourcePoint" />
            <mxPoint x="1372" y="610" as="targetPoint" />
          </mxGeometry>
        </mxCell>
        <mxCell id="Y18o-TXqSWF5UwbCu4sY-1" value="&lt;span style=&quot;font-size: 14px;&quot;&gt;Z[0]&lt;/span&gt;" style="text;html=1;align=center;verticalAlign=middle;whiteSpace=wrap;rounded=0;" vertex="1" parent="1">
          <mxGeometry x="1469" y="730" width="39" height="22" as="geometry" />
        </mxCell>
        <mxCell id="Y18o-TXqSWF5UwbCu4sY-2" value="&lt;span style=&quot;font-size: 14px;&quot;&gt;Z[1]&lt;/span&gt;" style="text;html=1;align=center;verticalAlign=middle;whiteSpace=wrap;rounded=0;" vertex="1" parent="1">
          <mxGeometry x="1588" y="732" width="39" height="22" as="geometry" />
        </mxCell>
        <mxCell id="Y18o-TXqSWF5UwbCu4sY-3" value="&lt;span style=&quot;font-size: 14px;&quot;&gt;Z[7]&lt;/span&gt;" style="text;html=1;align=center;verticalAlign=middle;whiteSpace=wrap;rounded=0;" vertex="1" parent="1">
          <mxGeometry x="1748" y="731" width="39" height="22" as="geometry" />
        </mxCell>
        <mxCell id="Y18o-TXqSWF5UwbCu4sY-4" value="&lt;span style=&quot;font-size: 14px;&quot;&gt;Z[8]&lt;/span&gt;" style="text;html=1;align=center;verticalAlign=middle;whiteSpace=wrap;rounded=0;" vertex="1" parent="1">
          <mxGeometry x="1791" y="732" width="39" height="22" as="geometry" />
        </mxCell>
        <mxCell id="Y18o-TXqSWF5UwbCu4sY-5" value="&lt;span style=&quot;font-size: 14px;&quot;&gt;A[8]&lt;/span&gt;" style="text;html=1;align=center;verticalAlign=middle;whiteSpace=wrap;rounded=0;" vertex="1" parent="1">
          <mxGeometry x="1632" y="582" width="39" height="22" as="geometry" />
        </mxCell>
        <mxCell id="Y18o-TXqSWF5UwbCu4sY-8" value="&lt;span style=&quot;font-size: 14px;&quot;&gt;A[7]&lt;/span&gt;" style="text;html=1;align=center;verticalAlign=middle;whiteSpace=wrap;rounded=0;" vertex="1" parent="1">
          <mxGeometry x="1653" y="608" width="39" height="22" as="geometry" />
        </mxCell>
        <mxCell id="Y18o-TXqSWF5UwbCu4sY-9" value="&lt;span style=&quot;font-size: 14px;&quot;&gt;A[1]&lt;/span&gt;" style="text;html=1;align=center;verticalAlign=middle;whiteSpace=wrap;rounded=0;" vertex="1" parent="1">
          <mxGeometry x="1490" y="609" width="39" height="22" as="geometry" />
        </mxCell>
        <mxCell id="Y18o-TXqSWF5UwbCu4sY-10" value="&lt;span style=&quot;font-size: 14px;&quot;&gt;A[0]&lt;/span&gt;" style="text;html=1;align=center;verticalAlign=middle;whiteSpace=wrap;rounded=0;" vertex="1" parent="1">
          <mxGeometry x="1373" y="610" width="39" height="22" as="geometry" />
        </mxCell>
      </root>
    </mxGraphModel>
  </diagram>
</mxfile>
